<svg width="561" height="561" viewBox="0 0 561 561" fill="none" xmlns="http://www.w3.org/2000/svg">
<path fill-rule="evenodd" clip-rule="evenodd" d="M195 230C195 216.193 206.193 205 220 205H258V226H220C217.791 226 216 227.791 216 230V354C216 356.209 217.791 358 220 358H344C346.209 358 348 356.209 348 354V230C348 227.791 346.209 226 344 226H306V205H345C358.807 205 370 216.193 370 230V355C370 368.807 358.807 380 345 380H220C206.193 380 195 368.807 195 355V230Z" fill="white"/>
<rect x="272" y="142" width="20" height="160" fill="white"/>
<rect x="268.86" y="144.142" width="20" height="60" transform="rotate(-45 268.86 144.142)" fill="white"/>
<rect x="283" y="130" width="20" height="60" transform="rotate(45 283 130)" fill="white"/>
</svg>
